<?xml version="1.0" encoding="utf-8"?>
<!-- Generator: Adobe Illustrator 18.0.0, SVG Export Plug-In . SVG Version: 6.00 Build 0)  -->
<!DOCTYPE svg PUBLIC "-//W3C//DTD SVG 1.1//EN" "http://www.w3.org/Graphics/SVG/1.1/DTD/svg11.dtd">
<svg version="1.1" id="Layer_1" xmlns="http://www.w3.org/2000/svg" xmlns:xlink="http://www.w3.org/1999/xlink" x="0px" y="0px"
	 viewBox="0 0 2160 2880" enable-background="new 0 0 2160 2880" xml:space="preserve">
<path fill="#0678BE" d="M1842.9,677.1C1638.9,473.1,1368,360,1080,360C485.1,360,0,845.1,0,1440s485.1,1080,1080,1080
	s1080-485.1,1080-1080C2160,1152,2046.9,881.1,1842.9,677.1z M1080,2141.1c-325.7,0-591.4-265.7-591.4-591.4
	c0-276,185.1-461.1,348-624c108-108,212.6-212.6,243.4-329.1c30.9,116.6,133.7,221.1,243.4,329.1c162.9,162.9,348,348,348,624
	C1671.4,1875.4,1405.7,2141.1,1080,2141.1z"/>
</svg>
